<?xml version="1.0" encoding="UTF-8"?>
<svg id="Camada_1" data-name="Camada 1" xmlns="http://www.w3.org/2000/svg" viewBox="0 0 1500 1500">
  <defs>
    <style>
      .cls-1 {
        fill: #f16520;
      }

      .cls-1, .cls-2 {
        stroke-width: 0px;
      }

      .cls-2 {
        fill: #fff;
      }
    </style>
  </defs>
  <rect class="cls-1" width="1500" height="1500"/>
  <g>
    <g>
      <path class="cls-2" d="m345.22,1101.46c-26.83,8.44-35.27,16.88-43.71,43.71-.6,1.9-3.29,1.9-3.88,0-8.44-26.83-16.88-35.27-43.71-43.71-1.9-.6-1.9-3.29,0-3.88,26.83-8.44,35.27-16.88,43.71-43.71.6-1.9,3.29-1.9,3.88,0,8.44,26.83,16.88,35.27,43.71,43.71,1.9.6,1.9,3.29,0,3.88Z"/>
      <path class="cls-2" d="m1233.35,708.12c-26.83,8.44-35.27,16.88-43.71,43.71-.6,1.9-3.29,1.9-3.88,0-8.44-26.83-16.88-35.27-43.71-43.71-1.9-.6-1.9-3.29,0-3.88,26.83-8.44,35.27-16.88,43.71-43.71.6-1.9,3.29-1.9,3.88,0,8.44,26.83,16.88,35.27,43.71,43.71,1.9.6,1.9,3.29,0,3.88Z"/>
      <path class="cls-2" d="m984.88,1327.92c-26.83,8.44-35.27,16.88-43.71,43.71-.6,1.9-3.29,1.9-3.88,0-8.44-26.83-16.88-35.27-43.71-43.71-1.9-.6-1.9-3.29,0-3.88,26.83-8.44,35.27-16.88,43.71-43.71.6-1.9,3.29-1.9,3.88,0,8.44,26.83,16.88,35.27,43.71,43.71,1.9.6,1.9,3.29,0,3.88Z"/>
      <path class="cls-2" d="m550.98,510.45c-26.83,8.44-35.27,16.88-43.71,43.71-.6,1.9-3.29,1.9-3.88,0-8.44-26.83-16.88-35.27-43.71-43.71-1.9-.6-1.9-3.29,0-3.88,26.83-8.44,35.27-16.88,43.71-43.71.6-1.9,3.29-1.9,3.88,0,8.44,26.83,16.88,35.27,43.71,43.71,1.9.6,1.9,3.29,0,3.88Z"/>
      <g>
        <path class="cls-2" d="m625.68,1018.16c1.74,8.01-4.75,14.04-12.53,11.14-9.64-3.6-16.82-10.64-22.05-19.21-2.22-3.65-4.04-9.19,3.3-11.11,8.52-2.23,29.38,10.47,31.27,19.17Z"/>
        <path class="cls-2" d="m559.17,1025.5c7.85-.84,28.35,16.37,29.1,24.11.4,4.14-2.2,6.21-5.13,7.67-3.78,1.88-8.29,1.65-10.92-1.51-5.55-6.65-8.97-15.07-18.32-18.24-1.97-.67-1.94-5.18-1.01-8.35,1.05-3.62,4.12-2.75,6.28-3.68Z"/>
        <path class="cls-2" d="m548.35,1077.4c.78,4.13.35,9.07-4.5,11.42-5.74,2.78-9.08-2.31-10.8-6.12-3.11-6.88-7.89-12.11-12.9-17.42-2.66-2.82-5.52-5.75-1.68-10.24,3.75-4.37,6.8-2.36,10.48-.27,8.95,5.09,16.29,11.51,19.4,22.63Z"/>
        <path class="cls-2" d="m1217.74,1014.41c-13.53-25.47-30.18-48.34-50.1-69.11-16.82-17.53-36.21-31.83-55.15-46.81-13.1-10.36-24.46-22.16-27.3-40.1-3.75-23.73-.97-47.58-2.06-71.36-1.32-28.91-9.21-55.65-20.44-81.3-12.56-28.69-30.82-54.54-49.08-79.9-23.15-32.14-37.31-67.94-46.83-105.7-6.09-24.16-13.51-47.69-26.29-68.95-15.32-25.48-35.72-45.62-67.18-49.12-39.44-4.39-68.01,16-92.09,43.73-17.09,19.68-31.65,41.4-45.93,63.29-11.02,16.89-24.78,32-40.62,44.33-34.28,26.69-73.17,45.82-112.09,64.67-4.51,2.18-9.13,4.44-15.48,1.99-54.73-21.17-111.77-30.12-170.11-25.9-28.26,2.05-52.11,20.58-50.25,56.75,1.02,19.8,7.14,37.93,12.53,56.63,7.7,26.72,18.67,52.07,30.64,76.84,15.02,31.1,33.41,60.44,52.98,89.01,7.85,11.46,12.64,24.49,5.91,38.52-3.62,7.54-8.28,14.58-12.04,22.06-8.51,16.97-18.49,33.64-21.85,52.4-3.23,18.02-5.78,36.07-4.8,54.97,1.95,37.69,10.66,73.45,24.38,108.14,11.24,28.43,23.82,56.32,35.81,84.45,4.45,12.13,11.93,16.57,22.59,13.43.1-2.16.25-4.33-2.26-5.39-5.36-9.13-11.36-17.94-15.95-27.44-10.25-21.2-19.99-42.53-27.92-64.87-10.97-30.9-18.41-62.29-21.69-94.74-2.32-22.98-1.96-45.83,6.08-68.01,13.68-37.76,45.03-57.36,81.86-53.61,18.96,1.93,37.05,5.93,54.17,13.98,28.72,13.51,54.89,29.68,71.93,58.35,12.15,20.45,15.6,41.81,9.97,63.65-5.67,22.02-18.93,38.45-41.91,47.68-32.07,12.88-59.28,5.76-85.32-13.71-9.86-7.38-17.39-16.81-24.67-26.66-3.59-4.86-9.09-11.36-15.84-6.38-5.48,4.04-1.13,9.84,1.23,15.16,4.84,10.9,12.7,19.29,21.26,26.86,20.68,18.28,45.06,28.67,72.79,27.14,19.03-1.05,37.98-4.79,56.78-8.34,12.81-2.42,24.75-.95,36.84,3.21,18.24,6.28,33.9,17.15,50.26,26.89,17.58,10.47,36.29,17.04,57.41,16.95,18.68-.08,37.53-3.01,56.14,1.64,9.93,2.48,18.66,6.69,25.88,14.2,5.3,5.51.03,11.32,1.27,16.91.56,2.5.02,5.27-.2,7.9-.53,6.06-.05,11.36,7.96,11.34,7.64-.02,8.63-4.53,8.85-11.19.53-16.1-1.12-32.65,5.25-48.01,16.45-39.69,42.69-70.36,82.22-88.93,19.97-9.38,40.98-10.68,61.3-5.18,36.09,9.76,59.7,33.11,67.27,70.86.95,4.72.89,11.38,8.37,9.5,6.13-1.54,11.5-4.68,11.71-12.81.42-16.22-7.59-29.16-16.43-41.28-13.37-18.32-30.03-33.33-50.45-43.83-1.81-.93-4.93-1.31-3.58-5.6,12.05-38,22.15-76.61,35.77-114.1,1.92-5.27,3.35-11.39,8.77-15.31,15.74-11.4,33.01.62,38.01,14.53,4.63,12.87,4.44,26.19,2.32,39.36-4.11,25.53-.79,50.02,12.04,72.22,19.12,33.1,46.35,55.31,86.2,58.87,18.38,1.64,23.84-3.73,19.58-21.64-6.1-25.67-16-49.8-28.41-73.14Zm-718.89-272.94c-6.83,14.16-15.62,27.01-27.49,37.49-6.8,6-14.51,7.36-21.74,1.28-28.57-24.02-47.32-54.57-58.96-89.7-5.04-17.46,5.1-30.05,28.51-31.27,23.64-1.24,46.29,4.63,65.5,19.91,23.23,18.49,25.18,39.5,14.18,62.3Zm559.35,31.92c8.01,41.08,10.09,82.15,5.05,123.94-3.91,32.4-13.46,61.99-32.48,88.44-13.57,18.88-30.41,34.67-48.27,49.35-26.27,21.58-53.08,42.37-81.99,60.49-32.66,20.47-68.25,30.16-106.22,30.35-42.01.2-83.18-6.89-123.41-19.08-11.33-3.44-11.17-3.66-5.13-13.42,12.14-19.65,16.52-39.66,6.65-62.22-11.43-26.13-22.9-51.98-44.46-71.61-7.87-7.17-16.23-13.86-24.81-20.16-3.46-2.54-3.96-4.37-2.2-8.04,7.77-16.13,16.97-31.59,22.62-48.73,10.36-31.48,21.99-62.66,22.16-96.44.08-16.37-2.21-32.6-3.75-48.87-.96-10.04-2.7-19.9-4.47-29.81-3.84-21.49-14.2-39.41-29.72-53.98-11.64-10.93-7.2-17.32,3.43-24.98,17.51-12.61,37.52-20.67,57.22-29.05,14.1-5.99,27.73-13.9,43.09-16,15.46-2.12,24.29-11.59,28.9-24.76,10.87-31.06,26.34-59.49,47.87-84.13,16.13-18.46,32.8-36.87,56.71-46.28,11.93-4.7,23.24-1.51,33.45,3.25,20.71,9.66,35.55,26.25,47.39,45.56,11.8,19.24,19.9,39.94,25.02,65.11,4.9,15.25,3.98,33.93,2.25,52.58-.53,5.69,1.5,9.22,5.58,12.95,18.3,16.72,36.91,33.2,51.78,53.26,14.92,20.14,25.47,42.45,33.4,66.21,5.09,15.27,11.24,30.13,14.35,46.07Z"/>
        <path class="cls-2" d="m920.5,981.01c-9.48,1.56-18.11,5.2-27.92,3.82-5.27-.74-9.31,3.88-11.39,9.14-2.62,6.64-4.1,14.12-8.16,19.72-11.88,16.34-49.3,23.41-67.39,13.66-3.66-1.97-6.35-4.95-8.77-8.15-4.32-5.73-3.02-11.71.85-16.75,4.32-5.64,9.11-1.27,12.97,1.12,10.6,6.57,21.4,9.85,33.95,6.15,10.94-3.23,16.46-11.84,18.99-22.73,3.99-17.18-6.56-29.96-10.4-44.72-.97-3.74-3.94-3.55-7.22-3.54-7.87,0-15.82.03-23.58-1.05-11.97-1.67-20.7-7.25-15.24-24.49,7.55-23.82,43.21-45.22,66.42-36.52,9.44,3.54,12.3,8.28,10.65,18.21-1.72,10.34-6.46,19.87-7.33,30.46-1.08,13.12.25,25.89,11.92,33.45,12.49,8.1,26.29,6.23,38.82-1.16,11.76-6.93,10.42-18.39,7.56-29.1-2.46-9.22,2.48-12.96,9.4-14.54,6.42-1.46,11.57.23,14.59,8.22,8.46,22.38-4.18,36.96-17.49,51.35-5.59,6.04-14.71,3.9-21.22,7.46Z"/>
        <path class="cls-2" d="m929.27,754.26c9.56,0,20.95-.16,30.21,9.32,3.73,3.82,6.21,6.71,3.28,11.98-2.99,5.38-7.34,7.67-13.32,6.58-1.94-.36-3.77-1.33-5.65-2.05-17.65-6.78-28.5.01-31.16,19.48-.18,1.29-.45,2.61-.9,3.83-1.97,5.41-1.02,13.56-10.84,11.75-8.84-1.63-14.18-8.57-13.15-17.13,1.46-12.09,27.4-40.61,41.52-43.76Z"/>
        <path class="cls-2" d="m698.58,885.32c8.28-.49,16.61-1.72,24.83-1.21,5.98.36,12.13,3.39,13.62,9.96.87,3.87-2.2,8.03-6.07,9.39-3.57,1.25-8.09,1.91-11.61.87-20.14-5.98-29.33,8.2-34.96,23.32-2.52,6.76-4.52,13.28-13.19,10.51-8.68-2.77-8.36-9.7-6.11-17.2,5.26-17.53,14.22-31.37,33.49-35.64Z"/>
        <path class="cls-2" d="m720.58,1026.68c-7.8-.99-10.23,5.29-13.54,10.01-2.77,3.94-5.59,6.79-10.62,4.16-4.59-2.41-8.08-4.81-6.62-11.6,2.6-12.08,19.9-26.8,32.06-24.92,5.71.88,12.71,3.39,12.59,10.8-.13,8.24-7.27,10.12-13.86,11.56Z"/>
        <path class="cls-2" d="m1000.97,802.41c5.22-1.06,9.36-2.58,11.8,2.18,2.24,4.37,2.35,8.77-1.42,12.46-2.05,2-3.24,4.51-6.46,5.81-8.8,3.55-17.54,7.26-24.5,14.42-4.62,4.75-9.85.73-13.19-2.48-2.92-2.81-4.7-7.75-.3-11.41,10.7-8.89,22.41-16.18,34.07-20.99Z"/>
        <path class="cls-2" d="m733.61,1042.29c2.31-.34,4.7-1.2,6.93-.91,5.34.7,12.32-.29,13.83,6.83,1.32,6.22-3.11,9.14-8.8,11.11-7.26,2.52-8.82,10.66-13.57,15.8-5.09,5.51-10.1,7.46-16.38,3.29-6.7-4.45-3.1-10.01-.3-14.64,3.54-5.88,4.4-13.27,10.71-17.7,2.45-1.72,4.14-4.28,7.59-3.77Z"/>
        <path class="cls-2" d="m717.62,972.49c1.92,4-.92,9.17-4.42,11.14-10.01,5.64-18.02,14.15-28.58,18.99-3.23,1.48-5.85,2.22-8.03-.15-2.13-2.32-1.78-5.4-.18-8.4,6.74-12.65,17.32-21.24,29.38-28.33,6.46-3.8,9.74-.84,11.83,6.75Z"/>
        <path class="cls-2" d="m1022.96,886.98c5.79-1.82,13.19-2.67,20.96-1.01,4.79,1.02,10.35,1.72,9.31,7.62-1.08,6.09-5.42,12.59-12.52,10.82-8.8-2.2-16.86-1.47-25.19.81-6.19,1.69-10.48-2.52-11.22-6.88-.58-3.42,1.94-9,8.22-9.13,2.95-.06,5.87-1.21,10.45-2.23Z"/>
        <path class="cls-2" d="m998.89,862.96c-3.12-.96-6.86,1.3-8.86-2.8-1.8-3.68-1.44-7.25,1.81-9.55,10.71-7.59,22.68-12.92,34.6-18.27,5.46-2.45,8.03,1.56,10.11,5.28,2.05,3.68.76,7.75-2.76,9.35-11.66,5.29-24.86,7.14-34.9,15.99Z"/>
        <path class="cls-2" d="m910.42,529.35c-3.16-18.49-11.35-33.37-18.77-48.66-11.39-23.49-28.24-22.96-46.81-11.95-30.85,18.29-45.52,48.61-53.94,82.26-2.58,10.32,2.19,18.06,12.98,20.91,21.8,5.76,43.63,11.54,65.67,16.25,23.37,4.99,38.43-3.78,42.79-24.86,2.4-11.59,2.15-23.84-1.91-33.95Zm-31,35.37c-19.08-1.75-36.59-8.27-53.67-16.45-7.44-3.56-9.28-9.28-6.28-16.37,5.56-13.17,10.92-26.59,20.48-37.51,10.98-12.53,19.88-13.16,28.46,3.18,9.18,17.49,16.79,35.47,21.33,50.21,4.14,18.52,4.16,18.26-10.32,16.93Z"/>
      </g>
    </g>
    <g>
      <path class="cls-2" d="m201.9,441.71l-21.81-19.53,91.07-101.7,21.81,19.53-33.95,37.91,103.3,92.5-23.17,25.88-103.3-92.5-33.95,37.91Z"/>
      <path class="cls-2" d="m419.87,414.7l-90.44-141.51,94.38-60.32,15.77,24.67-64.76,41.39,21.55,33.72,59.91-38.29,15.77,24.67-59.91,38.29,21.6,33.79,65.04-41.57,15.76,24.67-94.65,60.5Z"/>
      <path class="cls-2" d="m545.88,339.13l-49.93-160.35,62.62-19.5c11.98-3.73,22.9-4.77,32.74-3.11s18.22,5.72,25.13,12.19c6.91,6.47,12.02,14.99,15.32,25.59,3.32,10.65,3.89,20.5,1.73,29.57-2.16,9.06-6.91,16.97-14.25,23.72-7.33,6.75-17.1,12.02-29.29,15.82l-41.92,13.05-8.48-27.25,36.5-11.36c6.4-1.99,11.45-4.54,15.13-7.63,3.68-3.09,6.02-6.74,7.01-10.94.99-4.2.66-8.94-.98-14.21-1.66-5.32-4.1-9.49-7.33-12.49-3.23-3-7.27-4.79-12.13-5.37-4.85-.58-10.51.14-16.97,2.15l-22.63,7.05,41.3,132.63-33.55,10.45Zm62.99-99.66l62.16,60.69-37.04,11.53-61.31-60.95,36.19-11.27Z"/>
      <path class="cls-2" d="m724.81,295.74l-37.65.51,55.11-168.7,45.29-.61,59.56,167.15-37.65.51-43.38-128.99-1.3.02-39.97,130.11Zm-3.24-65.97l88.95-1.2.37,27.71-88.95,1.2-.37-27.71Z"/>
      <path class="cls-2" d="m925.52,137.01l41.1,13.75,7.61,121.53,1.85.62,79.21-92.48,41.1,13.75-53.29,159.26-32.33-10.82,34.68-103.66-1.31-.44-75.22,89.23-22.01-7.37-6.24-116.92-1.31-.44-34.81,104.05-32.33-10.82,53.29-159.26Z"/>
      <path class="cls-2" d="m1192.53,255.06l-90.72,141.33-29.57-18.98,90.71-141.33,29.58,18.98Z"/>
      <path class="cls-2" d="m1155.16,435.86l-26.62-26.64,159.36-78.11,32.01,32.04-78.3,159.24-26.62-26.64,62.22-121.03-.92-.92-121.14,62.07Zm45.03-48.32l62.87,62.93-19.61,19.59-62.87-62.93,19.61-19.59Z"/>
    </g>
  </g>
</svg>